<svg width="141" height="119" viewBox="0 0 141 119" fill="none" xmlns="http://www.w3.org/2000/svg">
<path d="M46.4484 72.5C46.4484 68.1308 47.5593 62.9039 47.5593 58.3898C47.5593 54.2012 47.0037 50.1209 47.0037 45.9545C47.0037 40.5871 44.3692 34.9897 42.5587 29.9753C40.8753 25.3129 35.606 17.2686 38.6694 12.2551C42.1996 6.47763 50.1707 -0.403961 57.5604 1.24993C64.0663 2.70599 68.9178 10.5981 72.84 15.4261C73.7397 16.5336 74.4013 17.674 75.3711 16.5142C77.3257 14.1766 79.2842 12.7884 82.0386 11.5401C86.358 9.58243 92.778 7.90277 97.565 7.90277C101.497 7.90277 103.198 8.37965 105.899 11.2603C106.892 12.3183 107.057 13.3432 107.69 14.6178C108.181 15.6069 107.702 17.4903 108.43 18.224C109.517 19.3187 113.854 18.5349 115.314 18.5349C117.546 18.5349 119.921 18.9119 121.951 19.9338C126.648 22.2995 127.122 31.3853 126.334 35.882C125.425 41.0661 120.973 44.1403 118.123 48.0685C116.86 49.8095 114.42 50.3773 113.122 52.2343C111.716 54.2468 110.55 56.327 109.233 58.3898C108.206 59.9994 107.692 62.1588 107.134 63.9856C106.766 65.1889 107.014 67.8284 106.331 68.7732C105.575 69.8205 105.628 76.9963 104.449 77.2602C102.9 78.04 102.566 81.4355 102.566 83.1669C102.566 84.5387 102.83 86.2413 102.535 87.5814C102.389 88.2414 100.063 87.9234 99.5097 87.9234C95.8023 87.9234 92.4029 86.2447 88.7369 86.2447C83.1892 86.2447 78.3875 84.8313 73.1178 84.5659C70.2451 84.4212 45.8924 82.9094 45.8924 80.369V73.654C45.8924 73.1333 46.0991 72.7599 46.4484 72.5Z" fill="white"/>
<path d="M46.4484 72.5C46.4484 68.1308 47.5593 62.9039 47.5593 58.3898C47.5593 54.2012 47.0037 50.1209 47.0037 45.9545C47.0037 40.5871 44.3692 34.9897 42.5587 29.9753C40.8753 25.3129 35.606 17.2686 38.6694 12.2551C42.1996 6.47763 50.1707 -0.403961 57.5604 1.24993C64.0663 2.70599 68.9178 10.5981 72.84 15.4261C73.7397 16.5336 74.4013 17.674 75.3711 16.5142C77.3257 14.1766 79.2842 12.7884 82.0386 11.5401C86.358 9.58243 92.778 7.90277 97.565 7.90277C101.497 7.90277 103.198 8.37965 105.899 11.2603C106.892 12.3183 107.057 13.3432 107.69 14.6178C108.181 15.6069 107.702 17.4903 108.43 18.224C109.517 19.3187 113.854 18.5349 115.314 18.5349C117.546 18.5349 119.921 18.9119 121.951 19.9338C126.648 22.2995 127.122 31.3853 126.334 35.882C125.425 41.0661 120.973 44.1403 118.123 48.0685C116.86 49.8095 114.42 50.3773 113.122 52.2343C111.716 54.2469 110.55 56.327 109.233 58.3898C108.206 59.9994 107.692 62.1588 107.134 63.9856C106.766 65.1889 107.014 67.8284 106.331 68.7732C105.575 69.8205 105.628 76.9963 104.449 77.2602M104.449 77.2602C100.831 78.0698 96.1429 76.6559 92.5644 76.141C88.2977 75.5272 83.6939 75.053 79.3531 75.053C76.0727 75.053 72.7036 74.0445 69.3519 73.9338C65.9295 73.8208 62.5142 72.8927 59.1038 72.8146C57.4921 72.7777 55.5352 73.1386 53.9489 72.7835C52.0369 72.3556 45.8924 70.8148 45.8924 73.654C45.8924 75.8923 45.8924 78.1307 45.8924 80.369C45.8924 82.9094 70.2451 84.4212 73.1178 84.5659C78.3875 84.8313 83.1892 86.2447 88.7368 86.2447C92.4029 86.2447 95.8023 87.9234 99.5097 87.9234C100.063 87.9234 102.389 88.2414 102.535 87.5814C102.83 86.2413 102.566 84.5387 102.566 83.1669C102.566 81.4355 102.9 78.04 104.449 77.2602Z" stroke="#1E1E1E" stroke-width="2" stroke-linecap="round"/>
<path d="M81.8889 83.9738C83.4871 83.8274 85.1218 83.2386 86.6565 82.7898C88.698 82.1929 91.3444 82.2022 93.2036 81.1619C94.6845 80.3333 96.7944 79.9828 98.4289 79.5553M98.4289 79.5553C98.4561 79.5482 98.4831 79.5411 98.5099 79.534C98.9478 79.4176 102.934 78.058 101.367 79.5669C100.134 80.7548 98.8563 81.2454 97.5119 81.8121M98.4289 79.5553C98.1765 80.2418 97.9101 80.9223 97.612 81.5894C97.5784 81.6645 97.5451 81.7388 97.5119 81.8121M98.4289 79.5553C99.1603 77.5665 99.7738 75.5271 100.698 73.6143C101.455 72.0476 102.043 70.3045 102.527 68.5331C102.571 67.5693 102.143 67.3218 102.755 65.6391C104.849 61.8707 102.755 65.6391 104.849 61.8707C105.901 60.7692 106.653 58.6909 106.653 58.6909M97.5119 81.8121C96.9271 82.0585 96.3298 82.3194 95.718 82.6583C95.0845 83.0092 94.4998 83.4386 93.8605 83.7894M97.5119 81.8121C97.1902 82.5219 96.8759 83.143 96.4132 83.5834M93.8605 83.7894C93.8484 83.7961 93.8363 83.8027 93.8241 83.8093C93.7967 83.8242 93.7729 83.838 93.7525 83.8507M93.8605 83.7894C92.425 83.4387 89.8138 82.961 92.3873 83.5462C92.5623 83.586 93.07 83.7044 93.7525 83.8507M93.8605 83.7894C94.0579 83.8376 94.233 83.8835 94.3694 83.9238M93.7525 83.8507C93.4945 84.012 93.7845 84.0073 94.2108 83.9475M93.7525 83.8507C93.8979 83.8818 94.0512 83.9143 94.2108 83.9475M94.2108 83.9475C94.262 83.9403 94.315 83.9323 94.3694 83.9238M94.2108 83.9475C94.3988 83.9866 94.5957 84.0267 94.799 84.0672M94.3694 83.9238C94.9251 83.8362 95.6115 83.6859 95.669 83.6778C95.9157 83.6429 96.164 83.6119 96.4132 83.5834M94.3694 83.9238C94.4297 83.9416 94.4824 83.9584 94.5261 83.9738C94.617 84.0058 94.708 84.0369 94.799 84.0672M96.4132 83.5834C97.9694 83.4056 99.5664 83.3269 101.09 83.02C101.785 82.8799 100.077 83.4255 99.6528 83.6613C99.4837 83.7553 98.8246 84.0844 98.2652 84.3668M96.4132 83.5834C96.1259 83.8569 95.7813 84.0607 95.3422 84.1728M98.2652 84.3668C98.2605 84.3692 98.2559 84.3715 98.2513 84.3738M98.2652 84.3668C98.2595 84.3672 98.2539 84.3676 98.2483 84.368M98.2652 84.3668C99.4365 84.2883 100.592 84.2359 100.567 84.3355C100.469 84.7322 99.418 84.7487 98.0975 84.604M98.2513 84.3738C98.1084 84.446 97.9724 84.5149 97.8532 84.5758M98.2513 84.3738C98.2768 84.431 98.2099 84.5203 98.0975 84.604M98.2513 84.3738C98.2504 84.3719 98.2494 84.3699 98.2483 84.368M97.8532 84.5758C97.7383 84.6346 97.639 84.6859 97.5641 84.7256M97.8532 84.5758C97.9355 84.5858 98.017 84.5952 98.0975 84.604M97.8532 84.5758C97.5995 84.5451 97.3377 84.5092 97.0724 84.4695M97.5641 84.7256C97.4642 84.7786 97.4078 84.8109 97.416 84.8124C97.535 84.8342 97.6742 84.8094 97.8047 84.7611M97.5641 84.7256C97.238 84.6755 96.9146 84.6172 96.5932 84.5498M97.5641 84.7256C97.6441 84.7379 97.7243 84.7498 97.8047 84.7611M97.8047 84.7611C97.9141 84.7206 98.0173 84.6637 98.0975 84.604M97.8047 84.7611C98.0811 84.8001 98.3596 84.8334 98.6406 84.8617C99.112 84.9092 100.693 84.8393 101.165 85.1771M98.2483 84.368C98.2176 84.3155 98.1008 84.2937 97.8569 84.3355L97.8501 84.3367C97.6463 84.3716 97.4429 84.4065 97.2396 84.4411M98.2483 84.368C97.903 84.3912 97.5568 84.4166 97.2396 84.4411M97.2396 84.4411C97.1838 84.4506 97.1281 84.46 97.0724 84.4695M97.2396 84.4411C97.1595 84.4473 97.0812 84.4534 97.0053 84.4594M97.0724 84.4695C96.9126 84.4965 96.7529 84.5233 96.5932 84.5498M97.0724 84.4695C97.05 84.4661 97.0277 84.4628 97.0053 84.4594M96.5932 84.5498C95.1287 84.7925 93.6687 85.0052 92.175 85.0919C91.8216 85.1125 91.3674 85.167 90.8743 85.219M96.5932 84.5498C96.5293 84.5364 96.4655 84.5226 96.4017 84.5085M90.8743 85.219C89.7371 85.3389 88.3934 85.4455 87.6034 85.0919C87.5854 85.0839 87.9755 85.0021 88.449 84.9095M90.8743 85.219C92.5495 85.3518 94.2573 85.3591 95.8486 85.4373C97.2966 85.5084 98.7585 85.4537 100.208 85.4537C100.43 85.4537 100.886 85.4604 101.118 85.3997M90.8743 85.219C90.0522 85.1538 89.2379 85.0584 88.449 84.9095M88.449 84.9095C89.0838 84.7855 89.8684 84.6422 90.0198 84.6315C91.9831 84.4928 93.9743 84.7284 95.9303 84.5493C96.0156 84.5415 96.1815 84.5269 96.4017 84.5085M88.449 84.9095C88.0397 84.8323 87.6373 84.7407 87.2442 84.6315C86.5938 84.4508 85.2523 84.2698 85.2523 84.2698H89.8239C91.4114 84.2698 93.0041 84.3069 94.5914 84.2698C94.8205 84.2644 95.0295 84.2409 95.2212 84.2008M96.4017 84.5085C96.5739 84.494 96.7794 84.4772 97.0053 84.4594M96.4017 84.5085C96.0058 84.4207 95.6128 84.3188 95.2212 84.2008M97.0053 84.4594C96.4509 84.3753 95.8829 84.2754 95.3422 84.1728M95.3422 84.1728C95.1574 84.1377 94.9758 84.1023 94.799 84.0672M95.3422 84.1728C95.3026 84.1829 95.2623 84.1922 95.2212 84.2008M94.799 84.0672C94.9396 84.1138 95.0803 84.1584 95.2212 84.2008M101.165 85.1771C101.186 85.1918 101.204 85.2072 101.22 85.2235C101.308 85.3115 101.248 85.366 101.118 85.3997M101.165 85.1771C101.687 82.8534 103.229 80.5345 103.653 78.1856C104.029 76.1036 104.769 74.0848 105.09 71.9863C105.426 69.7867 105.097 67.1083 105.922 65.0307C106.499 63.5791 106.004 61.5197 106.51 59.9331C108.006 58.6909 106.355 59.4914 106.653 58.6909M101.165 85.1771C101.149 85.2513 101.133 85.3255 101.118 85.3997M101.118 85.3997C101.038 85.8121 100.992 86.2247 100.992 86.6377M105.3 63.2334C104.849 64.142 103.032 68.6984 102.755 70.6544C102.592 71.8029 101.692 75.7271 101.692 76.8868M106.653 58.6909C106.844 58.3521 108.801 57.6404 108.908 57.3281C109.244 56.3522 109.657 54.9487 110.261 54.1483C110.951 53.2352 112.134 51.1861 112.968 50.5142C114.054 49.6389 119.467 43.6032 120.635 42.7918C120.793 42.6823 116.416 47.8943 116.576 47.7887M106.653 58.6909C107.166 57.3154 108.418 54.7649 108.927 53.3556C109.907 50.6406 114.036 49.167 116.576 47.7887M116.576 47.7887C117.534 47.1545 117.288 45.7401 118.237 45.0891M116.576 47.7887C116.83 47.6509 115.88 47.9072 116.125 47.7887C116.948 47.3897 117.612 45.6629 118.237 45.0891M118.237 45.0891C118.263 45.0712 118.289 45.0532 118.315 45.0351C118.86 44.6576 119.39 44.0182 119.884 43.2735M118.237 45.0891C118.834 44.5399 119.367 43.9253 119.884 43.2735M119.884 43.2735C120.816 41.8675 121.619 40.0862 122.152 38.9839C122.772 37.7004 123.715 35.5218 124.244 34.1609C124.7 32.986 124.613 32.3847 125.025 31.2225C125.679 29.3802 126.048 29.3269 126.048 27.3727C126.048 24.3745 126.377 31.181 126.048 34.1609C125.869 35.7796 124.27 36.4405 124.209 38.0301C124.186 38.641 123.36 40.512 123.36 40.2665C123.36 39.673 123.882 39.163 123.882 38.5892C123.882 37.4881 122.663 40.5628 121.988 41.429C121.379 42.2105 120.461 42.5457 119.884 43.2735ZM72.2291 16.4004C72.7759 17.6602 73.6409 20.2866 73.6601 21.1588C73.6751 21.8397 73.7319 22.5208 73.7916 23.2072M72.2291 16.4004C72.4182 16.5239 72.6811 16.622 72.8235 16.7655C73.0707 17.0144 73.159 17.5477 73.4766 17.5876C73.5708 17.5995 74.9887 18.6034 75.1746 18.8374C75.2403 18.9201 75.2532 19.1261 75.2489 19.3564M72.2291 16.4004C72.2191 16.3939 72.2094 16.3873 72.1999 16.3807C72.2558 16.7592 72.301 17.1607 72.301 17.3574V20.6955C72.301 25.8881 72.2444 31.6247 70.8153 36.6623C70.2397 38.6912 68.9287 39.8366 69.16 42.3376C69.3621 44.5224 68.7658 45.9716 69.3621 44.5224C72.4 37.1401 73.2478 29.3596 75.8349 21.8355M73.7916 23.2072C73.8703 24.1116 73.954 25.0253 73.954 25.9604C73.954 26.4096 73.9314 26.8564 73.8912 27.3014M73.7916 23.2072C74.4282 20.4361 74.6294 17.8211 74.6294 19.6247C74.6294 19.8562 74.9065 19.6168 75.2489 19.3564M73.7916 23.2072C73.2627 25.5098 72.7784 28.3096 72.7784 29.8082M73.8912 27.3014C73.5991 30.5374 72.418 32.8694 72.2291 36.1045C72.2032 36.5477 71.811 37.6046 71.7171 38.0301C71.6087 38.5212 70.9233 40.8761 70.5701 40.5204C70.009 39.9553 71.8462 35.8054 71.9621 35.0702C72.3189 32.8064 72.8791 29.7337 73.8912 27.3014ZM73.8912 27.3014C74.1871 26.5903 74.4279 25.7658 74.8073 25.2003C75.4377 22.6364 75.4345 22.8462 75.8349 21.8355M75.8349 21.8355C76.3251 20.5983 76.7659 19.321 77.3624 18.1796C77.5942 17.7361 77.7866 15.5363 77.7866 15.082M75.8349 21.8355C75.8808 21.702 76.0936 20.4498 76.1409 20.3166C76.5105 19.2742 76.6476 19.3555 76.9429 18.3179M77.7866 15.082C77.4679 15.651 77.3906 17.9128 76.9429 18.3179M77.7866 15.082C77.5707 15.3539 74.7065 18.7261 75.9466 18.7711M76.9429 18.3179C76.7337 18.5073 76.9915 19.3278 76.765 19.3989M76.9429 18.3179C76.9685 18.228 76.9941 18.138 77.0196 18.0481C77.0676 17.8787 76.9364 17.9395 76.7143 18.1117M76.765 19.3989C76.662 19.4313 76.5576 19.4487 76.4521 19.4487C76.4425 19.4487 75.9557 18.7714 75.9466 18.7711M76.765 19.3989C76.8578 19.2667 76.7679 18.968 76.8577 18.8374C76.9074 18.7651 76.6628 18.1834 76.7143 18.1117M76.765 19.3989C76.4473 19.8514 76.1224 20.3128 75.8643 20.7806C75.6127 21.2367 75.2388 19.8925 75.2489 19.3564M75.9466 18.7711C76.2332 18.5188 76.5116 18.2689 76.7143 18.1117M75.9466 18.7711C75.7066 18.9823 75.4609 19.1951 75.2489 19.3564M108.457 18.2619C107.91 24.3248 104.728 29.7429 102.478 35.2674C102.416 35.4195 102.353 35.5713 102.289 35.7228M102.289 35.7228C102.094 36.1838 101.892 36.642 101.683 37.0984M102.289 35.7228C102.147 36.0128 102.013 36.3047 101.89 36.5994C101.821 36.7649 101.752 36.9313 101.683 37.0984M102.289 35.7228C103.295 33.6629 104.69 31.6973 105.335 29.5121C105.957 27.4045 108.033 25.4879 109.221 23.6582C109.918 22.5834 110.847 21.5984 111.213 20.4023C111.6 19.1352 109.636 19.9154 109.359 20.4023C109.041 20.9639 108.457 22.1407 108.457 23.2587M101.683 37.0984C100.607 39.4558 99.3848 41.7632 98.4157 44.1563M101.683 37.0984C100.918 38.9624 100.182 40.906 99.2285 42.6671C98.9612 43.1607 98.6844 43.6558 98.4157 44.1563M98.4157 44.1563C98.2363 44.5995 98.0655 45.0455 97.906 45.4954C97.6971 46.0845 97.2704 46.7918 97.0364 47.4587M98.4157 44.1563C97.9751 44.9771 97.5563 45.8124 97.2366 46.6793C97.1891 46.8081 97.1089 47.141 97.0364 47.4587M97.0364 47.4587C96.9517 47.7 97.521 45.9716 96.8774 48.1593C96.8755 48.1877 96.9506 47.8338 97.0364 47.4587Z" stroke="#1E1E1E" stroke-opacity="0.25" stroke-width="2" stroke-linecap="round"/>
<path d="M81.8579 84.4588C80.8958 84.0825 76.1094 83.9114 75.6908 82.9197C75.1288 84.3769 74.7082 86.3155 73.8573 87.613C73.5685 88.0534 67.5156 86.1396 66.6301 86.1445C65.3138 86.1517 63.4599 85.3883 62.1761 85.033C59.7616 84.3646 57.2106 83.5515 54.8825 82.6408C50.4749 80.9166 45.721 79.5074 41.4897 77.3774C34.3162 73.7663 27.3049 69.504 21.9417 63.4222C18.6692 59.7113 15.9787 55.2742 13.4579 50.908C12.4469 49.1569 11.808 47.9018 11.1246 45.4818C10.9745 45.1261 10.4541 42.5842 10.908 42.7289C12.3697 43.1947 13.9603 43.7773 15.2813 44.5367C23.5795 49.307 32.004 54.3041 40.8634 57.9409C49.2903 61.4001 57.8221 64.7039 66.3192 67.8989C70.9118 69.6258 75.9089 70.3401 80.302 72.0587L81.6753 72.9011L84.2316 74.4693C85.5503 74.9852 86.9827 74.7292 88.2978 75.1865C92.014 76.4789 95.6476 78.0617 99.3123 79.4953C101.028 80.1666 102.62 81.2258 104.388 81.9174C106.259 82.6495 108.2 82.9722 110.041 83.6923C112.256 84.5585 109.739 89.9535 109.096 91.6204C108.214 93.9088 108.204 94.3283 106.032 93.4788L100.647 91.3723C96.4669 89.737 92.1773 88.4957 88.0179 86.8685L81.8579 84.4588Z" fill="white"/>
<path d="M81.6753 72.9011C81.4417 72.9004 75.4078 82.2493 75.6908 82.9197M75.6908 82.9197C76.1094 83.9114 80.8958 84.0825 81.8579 84.4588L88.0179 86.8685C92.1773 88.4957 96.4669 89.737 100.647 91.3723L106.032 93.4788C108.204 94.3283 108.214 93.9088 109.096 91.6204C109.739 89.9535 112.256 84.5585 110.041 83.6923C108.2 82.9722 106.259 82.6495 104.388 81.9174C102.62 81.2258 101.028 80.1666 99.3123 79.4953C95.6476 78.0617 92.014 76.4789 88.2978 75.1865C86.9827 74.7292 85.5503 74.9852 84.2316 74.4693L80.302 72.0587C75.9089 70.3401 70.9118 69.6258 66.3192 67.8989C57.8221 64.7039 49.2903 61.4001 40.8634 57.9409C32.004 54.3041 23.5795 49.307 15.2813 44.5367C13.9603 43.7773 12.3697 43.1947 10.908 42.7289C10.4541 42.5842 10.9745 45.1261 11.1246 45.4818C11.808 47.9018 12.4469 49.1569 13.4579 50.908C15.9787 55.2742 18.6692 59.7113 21.9417 63.4222C27.3049 69.504 34.3162 73.7663 41.4897 77.3774C45.721 79.5074 50.4749 80.9166 54.8825 82.6408C57.2106 83.5515 59.7616 84.3646 62.1761 85.033C63.4599 85.3883 65.3138 86.1517 66.6301 86.1445C67.5156 86.1396 73.5685 88.0534 73.8573 87.613C74.7082 86.3155 75.1288 84.3769 75.6908 82.9197Z" stroke="#1E1E1E" stroke-width="2" stroke-linecap="round"/>
<path d="M37.563 75.0352C37.6782 75.3335 40.723 75.9031 41.2099 76.132C41.8274 76.3648 41.8667 76.5962 43.7392 77.426C46.1705 78.1573 48.1862 78.8995 50.4137 79.3857C54.9494 80.3757 59.0554 82.4131 63.4598 83.7928C64.3004 84.0561 65.0953 84.6148 65.9316 84.7691C66.34 84.8445 66.7402 85.1088 67.1619 85.1815C67.5787 85.2534 68.3972 85.2041 68.765 85.4071C70.0449 86.1135 71.7511 85.1497 72.8608 84.5461C73.4152 84.2445 73.7383 84.0517 74.3848 83.9376M74.656 83.3063C74.2243 83.0341 73.3541 83.1522 72.8608 83.2393C72.1724 83.3607 71.4488 83.5597 70.7489 83.5429C69.8029 83.5201 68.9398 83.8494 67.9808 83.755C67.0512 83.6634 66.0959 83.7148 65.1545 83.632C62.9548 83.4384 61.0795 82.9695 59.0352 82.1939M53.0271 80.0728C54.1006 80.4985 62.6571 82.3283 63.7657 82.572C64.6494 82.7662 65.8395 82.7998 66.7239 82.6641C67.6955 82.515 68.6791 82.5954 69.6399 82.4259C71.0126 82.1836 72.4325 81.992 73.8193 81.8265C74.3903 81.7584 75.2242 81.7058 75.8077 81.8211C76.4265 81.9433 77.0659 81.9596 77.6907 82.0415C78.5287 82.1513 79.9399 82.2429 80.5767 82.8142C81.126 83.307 82.5316 83.5877 83.2356 83.7268C83.8324 83.8447 84.373 84.1677 84.9588 84.3438C86.6954 84.8661 88.3513 85.4728 90.0548 86.0776C91.0527 86.4319 92.0452 86.8463 93.0548 87.1987C93.899 87.4934 94.7322 88.0134 95.6105 88.1755C96.4792 88.3358 98.4412 89.0052 99.3368 89.0797M99.3368 89.0797C99.5902 89.0927 100.859 88.8175 101.114 88.8318M99.3368 89.0797C99.3062 89.0781 100.567 89.3855 100.591 89.331C100.756 88.9526 102.5 90.3127 102.766 90.501C103.895 91.2992 103.55 90.5325 104.856 91.0063C104.994 91.0564 107.063 92.5311 107.234 92.501C107.681 92.4222 108.597 88.4887 108.803 88.1208M101.114 88.8318C101.635 88.8611 104.732 88.9233 105.248 89.001C107.2 89.2945 105.661 88.9697 107.431 88.1208C105.661 88.9697 108.689 90.7945 106.738 90.501C106.221 90.4233 101.635 88.8611 101.114 88.8318ZM110.035 87.6643C108.732 87.7123 101.967 87.9142 101.515 87.8551C100.8 87.7613 100.148 87.4811 99.4475 87.3602C98.6205 87.2176 97.8184 86.7696 96.9675 86.7308C95.1585 86.6484 93.3296 85.8003 91.6582 85.1729C89.4632 84.349 87.0496 84.0127 84.8414 83.2745C84.0463 83.0087 83.1414 82.8185 82.3166 82.6069C81.5334 82.406 80.7133 82.2187 79.9095 82.1336C78.6863 82.0039 77.4348 81.6663 76.2183 81.4646C75.5439 81.3527 74.677 81.1531 72.7698 81.4897C71.5456 81.7057 72.3273 82.8235 72.0223 83.94C71.8669 84.5664 72.3851 84.7975 72.6845 85.2049C73.0063 85.6429 73.1375 85.762 73.0811 86.3017C73.0518 86.5819 72.6646 86.5902 72.4666 86.6251C72.1045 86.689 72.1512 86.4331 72.0997 86.1372" stroke="#1E1E1E" stroke-opacity="0.25" stroke-width="2" stroke-linecap="round"/>
<path d="M42.8412 83.4465C41.8764 83.6304 29.5618 86.5106 29.5618 86.5106C27.1108 86.9776 26.7817 88.4853 25.858 91.2194C24.6607 94.7635 30.3051 92.774 32.3447 92.3853C45.6607 89.8481 58.5129 85.7979 71.8645 83.2539C77.1706 82.2429 82.5569 81.7503 87.9143 80.7295C90.6655 80.2053 93.2965 79.4294 95.9698 78.641L96.0637 78.6133C97.6787 78.137 99.7518 76.7605 101.522 77.3361C105.127 78.5086 109.737 78.6488 113.564 79.3412C116.453 79.8638 118.04 80.8606 121.001 80.2964C123.834 79.7566 126.432 78.7366 129.093 77.7166C131.399 76.8329 135.52 74.6857 136.495 72.4216C137.788 69.4222 135.069 64.6971 134.1 61.9064C132.482 57.2424 127.77 52.9534 122.455 52.9165C116.561 52.8755 111.837 56.1812 106.975 58.9501C102.597 61.4426 99.3392 64.0086 95.7444 67.4949C89.6576 73.3981 79.4155 73.1792 71.3869 74.8048C61.5852 76.7895 54.391 80.0646 42.8412 83.4465Z" fill="white" stroke="#1E1E1E" stroke-width="2" stroke-linecap="round"/>
<path d="M27.3043 92.501C27.9005 92.4794 31.1676 91.4089 31.7322 91.2177C33.7538 90.533 35.9645 90.5911 37.9597 89.9291C38.8642 89.629 39.8902 89.6313 40.8179 89.3855C41.6052 89.1769 42.388 88.9366 43.2263 88.8878C45.2867 88.7678 47.0505 87.3966 49.1016 87.133C50.8591 86.907 52.5863 86.0568 54.3299 85.9388C55.0329 85.8913 55.9599 85.2938 56.6282 85.0531C57.1582 84.8623 57.7397 84.7801 58.2771 84.628C59.6659 84.2349 61.1083 84.3025 62.4781 83.906C65.4146 83.0559 68.4443 82.5472 71.3857 81.8005C73.7901 81.1901 76.3687 80.7313 78.8401 80.4247C81.3733 80.1104 84.4031 79.5684 86.8788 79.0012C88.2899 78.6779 89.9197 78.3336 91.3469 78.1322C92.7936 77.928 93.8063 77.5149 95.1765 77.0214C96.5356 76.532 103.391 77.0619 105.089 77.1901M109.987 77.5679C111.451 77.6785 113.654 77.8367 115.13 77.9481C116.036 78.0165 116.938 77.9831 117.838 77.936M117.838 77.936C118.189 77.9176 117.308 78.7903 117.659 78.7729C117.234 79.1518 117.888 78.8121 118.114 78.7729C118.641 78.6817 121.812 77.2867 122.339 77.1288C123.253 76.8547 119.245 79.4177 120.141 79.0012C120.175 78.9854 122.774 77.8605 122.813 77.8478M117.838 77.936C118.219 77.8425 118.582 77.7168 118.909 77.5539C119.359 77.3299 119.75 76.9244 120.253 76.9023M117.838 77.936C116.971 78.1486 116.012 78.1946 115.185 78.1322C114.418 78.0742 113.686 78.1988 112.952 78.1434C111.826 78.0584 110.794 77.6208 109.693 77.5377L104.277 77.1288M122.813 77.8478C122.95 77.8351 123.09 77.8194 123.237 77.8007C123.393 77.7807 123.559 77.7632 123.732 77.7467M122.813 77.8478C123.059 77.7672 123.394 77.7464 123.732 77.7467M123.732 77.7467C124.181 77.7038 123.632 76.0588 124.113 76.0012M123.732 77.7467C124.098 77.7471 124.467 77.7724 124.727 77.7733C124.829 77.7736 124.961 77.7538 125.106 77.721M124.113 76.0012C124.174 75.9938 125.277 77.5947 125.338 77.5866M124.113 76.0012C124.096 76.0381 125.122 77.6837 125.106 77.721M124.113 76.0012C124.247 75.7102 125.149 76.22 125.338 75.9558M125.338 77.5866C125.477 77.5681 125.614 77.5476 125.747 77.5243M125.338 77.5866C125.439 77.3136 125.232 76.2235 125.338 75.9558M125.338 77.5866C125.328 77.6142 125.318 77.6418 125.308 77.6694M125.747 77.5243C126.079 77.4667 126.392 77.3921 126.668 77.2903C128.195 76.7257 130.162 76.7068 131.458 75.5835C132.368 74.7945 136.082 71.3828 135.502 69.7733C135.097 68.65 134.797 67.5067 134.738 66.3082C134.695 65.4407 134.254 64.664 134.02 63.8258C133.949 63.5722 133.79 63.3432 133.743 63.0878M125.747 77.5243C125.941 77.4516 126.114 77.3738 126.23 77.3072C127.343 76.6664 129.258 75.9366 129.985 74.8527C130.534 74.0331 131.711 73.5541 132.328 72.7435C132.739 72.2027 133.061 71.4794 133.357 70.8704C133.707 70.1499 133.817 68.946 133.878 68.1318C133.962 66.9994 134.012 65.7225 133.823 64.6103C133.774 64.3228 133.755 63.4805 133.743 63.0878M125.747 77.5243C125.606 77.5775 125.455 77.628 125.308 77.6694M133.743 63.0878C133.732 63.0253 133.727 62.9612 133.732 62.8947C133.735 62.8479 133.739 62.9328 133.743 63.0878ZM125.308 77.6694C125.239 77.6888 125.171 77.7062 125.106 77.721M125.308 77.6694C125.271 77.7689 125.235 77.8687 125.199 77.9688C125.023 78.455 124.8 78.5967 125.01 77.9745C125.038 77.8891 125.071 77.8046 125.106 77.721M120.253 76.9023C121.221 76.2838 122.217 75.7183 123.259 75.2343C124.891 74.4757 125.849 73.3584 126.945 71.9652C128.038 70.577 129.199 68.5848 129.985 67.0012C130.624 65.7121 131.178 64.7067 131.902 63.486C131.955 63.396 133.062 61.1266 133.049 61.5007C133.024 62.239 132.382 64.2304 132.328 64.9671C132.123 67.7163 130.795 69.3262 128.962 71.2581C127.763 72.5221 126.911 73.932 126.214 75.4479M120.253 76.9023C120.303 76.9001 120.354 76.9017 120.406 76.9075M126.214 75.4479C126.014 75.8821 125.517 75.5052 125.338 75.9558M126.214 75.4479C128.118 73.6897 131.255 69.7821 133.049 68.0012C133.774 67.2811 131.923 70.7567 131.56 71.0012C130.782 71.5248 130.584 71.7235 130.07 72.5012C129.223 73.7839 127.382 74.8357 126.331 75.9558C126.094 76.2081 125.549 75.6629 125.338 75.9558" stroke="#1E1E1E" stroke-opacity="0.25" stroke-width="2" stroke-linecap="round"/>
<path d="M33.9 110.3C33.22 110.3 32.54 110.2 31.86 110C31.18 109.8 30.5533 109.5 29.98 109.1C29.42 108.7 28.9667 108.213 28.62 107.64C28.2867 107.067 28.12 106.413 28.12 105.68C28.12 105.453 28.14 105.22 28.18 104.98C28.3267 104.047 28.7067 103.307 29.32 102.76C29.9467 102.213 30.7067 101.94 31.6 101.94C31.6933 101.94 31.7867 101.947 31.88 101.96C31.9867 101.96 32.0867 101.967 32.18 101.98C32.7267 102.047 33.2267 102.233 33.68 102.54C34.1467 102.833 34.52 103.207 34.8 103.66C35.0933 104.1 35.24 104.593 35.24 105.14C35.24 105.46 35.1933 105.76 35.1 106.04C34.9267 106.547 34.5933 106.96 34.1 107.28C33.6067 107.6 33.0867 107.76 32.54 107.76C32.18 107.76 31.84 107.68 31.52 107.52C31.4667 107.493 31.3533 107.42 31.18 107.3C31.02 107.18 30.9267 107.093 30.9 107.04C30.8333 106.88 30.8 106.767 30.8 106.7C30.8 106.553 30.8467 106.453 30.94 106.4C31.0333 106.333 31.1467 106.3 31.28 106.3C31.4 106.3 31.5133 106.327 31.62 106.38C31.74 106.433 31.8267 106.513 31.88 106.62L31.9 106.66C31.9 106.66 31.9667 106.68 32.1 106.72C32.2067 106.747 32.3067 106.76 32.4 106.76C32.6267 106.76 32.8667 106.72 33.12 106.64C33.3733 106.547 33.6 106.427 33.8 106.28C34 106.12 34.1267 105.953 34.18 105.78C34.22 105.633 34.24 105.46 34.24 105.26C34.24 104.767 34.1133 104.347 33.86 104C33.62 103.653 33.2933 103.387 32.88 103.2C32.48 103.013 32.04 102.92 31.56 102.92C30.2267 102.92 29.4267 103.66 29.16 105.14C29.1467 105.233 29.1333 105.327 29.12 105.42C29.12 105.5 29.12 105.587 29.12 105.68C29.12 106.427 29.3667 107.087 29.86 107.66C30.3533 108.22 30.96 108.64 31.68 108.92C32.0267 109.053 32.3867 109.153 32.76 109.22C33.1467 109.287 33.5267 109.32 33.9 109.32C34.5267 109.32 35.1467 109.233 35.76 109.06C36.3867 108.887 36.9533 108.627 37.46 108.28C37.98 107.92 38.3933 107.48 38.7 106.96C39.02 106.44 39.18 105.84 39.18 105.16C39.18 104.413 39.0067 103.8 38.66 103.32C38.3133 102.827 37.86 102.427 37.3 102.12C36.7533 101.813 36.1533 101.56 35.5 101.36C35.1133 101.24 34.6867 101.113 34.22 100.98C33.7533 100.847 33.3 100.687 32.86 100.5C32.42 100.3 32.0333 100.053 31.7 99.76C31.3667 99.4533 31.1333 99.0733 31 98.62C30.9067 98.3 30.86 97.9667 30.86 97.62C30.86 96.9 31.06 96.2733 31.46 95.74C31.8733 95.2067 32.4 94.7933 33.04 94.5C33.68 94.2067 34.3533 94.06 35.06 94.06C35.4733 94.06 35.88 94.1133 36.28 94.22C36.6933 94.3133 37.08 94.4733 37.44 94.7C37.8267 94.94 38.16 95.2733 38.44 95.7C38.72 96.1267 38.86 96.5733 38.86 97.04C38.86 97.2933 38.8067 97.54 38.7 97.78C38.6067 98.02 38.44 98.2467 38.2 98.46C38.04 98.5933 37.8533 98.7 37.64 98.78C37.44 98.8467 37.2333 98.88 37.02 98.88C36.6467 98.88 36.3067 98.7667 36 98.54C35.7067 98.3 35.5867 97.9333 35.64 97.44C35.6667 97.2933 35.74 97.16 35.86 97.04C35.98 96.92 36.1067 96.86 36.24 96.86C36.4 96.86 36.52 96.9733 36.6 97.2C36.6133 97.24 36.62 97.2933 36.62 97.36C36.62 97.4 36.6133 97.44 36.6 97.48C36.6 97.5067 36.6 97.5467 36.6 97.6C36.6133 97.72 36.6667 97.8067 36.76 97.86C36.8533 97.9133 36.9533 97.94 37.06 97.94C37.2067 97.94 37.3133 97.9133 37.38 97.86C37.5267 97.7667 37.64 97.66 37.72 97.54C37.8133 97.42 37.86 97.2467 37.86 97.02C37.86 96.7 37.7467 96.3933 37.52 96.1C37.2933 95.7933 37.0333 95.5667 36.74 95.42C36.4867 95.2733 36.2133 95.1733 35.92 95.12C35.64 95.0667 35.3533 95.04 35.06 95.04C34.5133 95.04 33.9933 95.1533 33.5 95.38C33.0067 95.5933 32.6067 95.9 32.3 96.3C31.9933 96.7 31.84 97.1733 31.84 97.72C31.84 97.96 31.8667 98.18 31.92 98.38C31.9867 98.66 32.1733 98.9133 32.48 99.14C32.8 99.3667 33.1667 99.5667 33.58 99.74C34.0067 99.9 34.42 100.04 34.82 100.16C35.22 100.28 35.54 100.373 35.78 100.44C36.5533 100.667 37.2667 100.973 37.92 101.36C38.5867 101.747 39.1267 102.253 39.54 102.88C39.9533 103.493 40.16 104.253 40.16 105.16C40.16 106 39.9733 106.74 39.6 107.38C39.24 108.02 38.7533 108.56 38.14 109C37.5267 109.427 36.8533 109.747 36.12 109.96C35.3867 110.187 34.6467 110.3 33.9 110.3ZM44.5097 109.34C43.8697 109.34 43.3764 109.187 43.0297 108.88C42.6964 108.573 42.463 108.18 42.3297 107.7C42.2097 107.22 42.1497 106.72 42.1497 106.2C42.1497 105.88 42.163 105.567 42.1897 105.26C42.2297 104.94 42.263 104.647 42.2897 104.38C42.343 103.913 42.3897 103.44 42.4297 102.96C42.4697 102.48 42.4897 102.007 42.4897 101.54C42.4897 101.38 42.4697 101.207 42.4297 101.02C42.3897 100.82 42.263 100.72 42.0497 100.72C41.703 100.72 41.4897 100.767 41.4097 100.86C41.343 100.953 41.2364 101.133 41.0897 101.4C40.9964 101.613 40.843 101.72 40.6297 101.72C40.483 101.72 40.3564 101.66 40.2497 101.54C40.1297 101.407 40.0897 101.24 40.1297 101.04C40.223 100.667 40.4697 100.347 40.8697 100.08C41.2564 99.8133 41.6564 99.68 42.0697 99.68C42.4564 99.68 42.7964 99.8267 43.0897 100.12C43.383 100.413 43.5297 100.913 43.5297 101.62C43.5297 102.1 43.503 102.58 43.4497 103.06C43.4097 103.54 43.363 104.02 43.3097 104.5C43.2964 104.713 43.2697 104.973 43.2297 105.28C43.1897 105.587 43.1697 105.907 43.1697 106.24C43.1697 106.587 43.203 106.92 43.2697 107.24C43.3497 107.56 43.483 107.82 43.6697 108.02C43.8697 108.22 44.1497 108.32 44.5097 108.32C44.9364 108.32 45.2764 108.213 45.5297 108C45.7964 107.787 46.0364 107.5 46.2497 107.14C46.3964 106.873 46.523 106.58 46.6297 106.26C46.7364 105.94 46.823 105.607 46.8897 105.26C46.8764 105.073 46.8697 104.893 46.8697 104.72C46.8697 104.533 46.8697 104.353 46.8697 104.18V103.26C46.8697 103.167 46.8697 103.007 46.8697 102.78C46.883 102.54 46.8964 102.28 46.9097 102C46.923 101.72 46.9364 101.467 46.9497 101.24C46.9764 101 47.0097 100.833 47.0497 100.74C47.0897 100.62 47.1564 100.533 47.2497 100.48C47.343 100.427 47.4364 100.4 47.5297 100.4C47.6364 100.4 47.743 100.433 47.8497 100.5C47.9564 100.567 48.0297 100.667 48.0697 100.8C48.083 100.84 48.0897 100.973 48.0897 101.2C48.103 101.413 48.1097 101.66 48.1097 101.94C48.123 102.22 48.1297 102.48 48.1297 102.72C48.1297 102.947 48.1297 103.087 48.1297 103.14C48.1297 103.433 48.103 103.773 48.0497 104.16C48.0097 104.547 47.9564 104.913 47.8897 105.26C47.8897 105.753 47.963 106.227 48.1097 106.68C48.2564 107.12 48.4564 107.48 48.7097 107.76C48.9764 108.04 49.2764 108.18 49.6097 108.18C49.8364 108.18 50.0764 108.107 50.3297 107.96C50.5964 107.8 50.863 107.54 51.1297 107.18C51.3964 106.833 51.5897 106.32 51.7097 105.64C51.8297 104.96 51.8897 104.28 51.8897 103.6C51.8897 102.907 51.8364 102.307 51.7297 101.8C51.4764 101.653 51.243 101.42 51.0297 101.1C50.8164 100.78 50.7097 100.473 50.7097 100.18C50.7097 100.033 50.743 99.9 50.8097 99.78C50.8897 99.6467 51.0164 99.5533 51.1897 99.5C51.2297 99.4867 51.283 99.48 51.3497 99.48C51.5364 99.48 51.7097 99.5667 51.8697 99.74C52.043 99.9133 52.1697 100.073 52.2497 100.22C52.3164 100.34 52.3764 100.473 52.4297 100.62C52.4964 100.767 52.5564 100.913 52.6097 101.06C52.7564 101.113 52.923 101.14 53.1097 101.14C53.3097 101.14 53.483 101.113 53.6297 101.06C53.7764 101.007 53.943 100.94 54.1297 100.86C54.2097 100.82 54.2964 100.8 54.3897 100.8C54.5364 100.8 54.6564 100.853 54.7497 100.96C54.8564 101.067 54.9097 101.193 54.9097 101.34C54.9097 101.527 54.8297 101.673 54.6697 101.78C54.4697 101.913 54.2497 102.013 54.0097 102.08C53.783 102.133 53.543 102.16 53.2897 102.16C53.223 102.16 53.1497 102.16 53.0697 102.16C52.9897 102.16 52.9164 102.153 52.8497 102.14C52.8764 102.327 52.8964 102.527 52.9097 102.74C52.923 102.953 52.9297 103.173 52.9297 103.4C52.9297 104.16 52.8497 104.947 52.6897 105.76C52.5297 106.56 52.2897 107.213 51.9697 107.72C51.6764 108.2 51.303 108.567 50.8497 108.82C50.4097 109.073 49.963 109.2 49.5097 109.2C49.0564 109.2 48.623 109.06 48.2097 108.78C47.7964 108.487 47.4764 108.033 47.2497 107.42C46.983 107.967 46.623 108.427 46.1697 108.8C45.7297 109.16 45.1764 109.34 44.5097 109.34ZM58.8639 109.18C58.0106 109.18 57.2839 108.953 56.6839 108.5C56.0972 108.033 55.6506 107.44 55.3439 106.72C55.0506 105.987 54.9039 105.227 54.9039 104.44C54.9039 103.707 55.0306 103 55.2839 102.32C55.5506 101.627 55.9506 101.047 56.4839 100.58C56.9906 100.18 57.4972 99.8867 58.0039 99.7C58.5106 99.5133 59.0106 99.42 59.5039 99.42C60.3706 99.42 60.9906 99.6267 61.3639 100.04C61.7506 100.44 61.9439 100.913 61.9439 101.46C61.9439 101.913 61.8172 102.373 61.5639 102.84C61.3239 103.293 60.9906 103.673 60.5639 103.98C60.1239 104.287 59.6239 104.533 59.0639 104.72C58.5172 104.893 57.9639 104.98 57.4039 104.98C56.9106 104.98 56.4306 104.9 55.9639 104.74C55.9906 105.34 56.1172 105.9 56.3439 106.42C56.5706 106.94 56.8906 107.36 57.3039 107.68C57.7306 108 58.2506 108.16 58.8639 108.16C59.1706 108.16 59.5172 108.113 59.9039 108.02C60.3039 107.927 60.6639 107.78 60.9839 107.58C61.3039 107.367 61.4972 107.107 61.5639 106.8C61.5906 106.707 61.6039 106.593 61.6039 106.46C61.6039 106.327 61.6039 106.213 61.6039 106.12C61.6039 105.947 61.6572 105.82 61.7639 105.74C61.8706 105.66 61.9906 105.62 62.1239 105.62C62.2439 105.62 62.3572 105.66 62.4639 105.74C62.5706 105.82 62.6239 105.947 62.6239 106.12C62.6239 106.307 62.6239 106.48 62.6239 106.64C62.6239 106.787 62.5906 106.953 62.5239 107.14C62.3639 107.633 62.0772 108.033 61.6639 108.34C61.2506 108.633 60.7906 108.847 60.2839 108.98C59.7906 109.113 59.3172 109.18 58.8639 109.18ZM57.4239 103.94C57.6639 103.94 57.8839 103.92 58.0839 103.88C58.5239 103.8 58.9572 103.66 59.3839 103.46C59.8239 103.26 60.1906 102.993 60.4839 102.66C60.7772 102.313 60.9239 101.907 60.9239 101.44C60.9239 101.147 60.8172 100.92 60.6039 100.76C60.3906 100.6 60.1372 100.5 59.8439 100.46C59.7639 100.447 59.6839 100.44 59.6039 100.44C59.5239 100.427 59.4439 100.42 59.3639 100.42C58.7772 100.42 58.2506 100.58 57.7839 100.9C57.3172 101.207 56.9306 101.607 56.6239 102.1C56.3306 102.593 56.1372 103.12 56.0439 103.68C56.2439 103.773 56.4639 103.84 56.7039 103.88C56.9439 103.92 57.1839 103.94 57.4239 103.94ZM72.2558 109.92C72.1224 109.92 71.9758 109.867 71.8158 109.76C71.6558 109.667 71.5158 109.493 71.3958 109.24C71.3158 109.053 71.2358 108.813 71.1558 108.52C71.0891 108.227 71.0291 107.933 70.9758 107.64C70.9358 107.347 70.9024 107.107 70.8758 106.92C70.5158 107.56 70.0358 108.093 69.4358 108.52C68.8491 108.947 68.1624 109.16 67.3758 109.16C66.5891 109.16 65.9091 108.947 65.3358 108.52C64.7758 108.08 64.3424 107.527 64.0358 106.86C63.7291 106.193 63.5758 105.507 63.5758 104.8C63.5758 104.653 63.5824 104.513 63.5958 104.38C63.6091 104.233 63.6291 104.093 63.6558 103.96C63.8291 103.107 64.1491 102.287 64.6158 101.5C65.0958 100.713 65.7558 100.12 66.5958 99.72C66.9024 99.5733 67.2158 99.46 67.5358 99.38C67.8691 99.3 68.2024 99.26 68.5358 99.26C68.9224 99.26 69.3024 99.3267 69.6758 99.46C70.0491 99.58 70.3824 99.7933 70.6758 100.1L70.6958 100.12V96.84C70.6958 96.64 70.6958 96.48 70.6958 96.36C70.7091 96.2267 70.7158 96.1333 70.7158 96.08C70.7158 95.9467 70.7691 95.8467 70.8758 95.78C70.9824 95.7133 71.1024 95.68 71.2358 95.68C71.3558 95.68 71.4691 95.7133 71.5758 95.78C71.6824 95.8467 71.7358 95.9467 71.7358 96.08C71.7358 96.1467 71.7358 96.26 71.7358 96.42C71.7491 96.5667 71.7558 96.76 71.7558 97C71.7558 97.2667 71.7491 97.58 71.7358 97.94C71.7358 98.2867 71.7358 98.6533 71.7358 99.04C71.7224 99.7733 71.7158 100.507 71.7158 101.24C71.7158 101.973 71.7158 102.713 71.7158 103.46C71.7158 103.9 71.7291 104.4 71.7558 104.96C71.7824 105.52 71.8224 106.073 71.8758 106.62C71.9424 107.167 72.0291 107.653 72.1358 108.08C72.1758 108.253 72.2224 108.413 72.2758 108.56C72.3424 108.693 72.4224 108.833 72.5158 108.98C72.7424 109.087 72.8558 109.233 72.8558 109.42C72.8558 109.553 72.7958 109.667 72.6758 109.76C72.5691 109.867 72.4291 109.92 72.2558 109.92ZM67.2358 108.08C68.1291 108.08 68.8358 107.807 69.3558 107.26C69.8758 106.713 70.2491 106.02 70.4758 105.18C70.5424 104.94 70.5958 104.513 70.6358 103.9C70.6758 103.287 70.6958 102.593 70.6958 101.82V101.72C70.5491 101.68 70.4358 101.587 70.3558 101.44C70.3024 101.333 70.2491 101.233 70.1958 101.14C70.1558 101.047 70.0891 100.96 69.9958 100.88C69.7958 100.68 69.5558 100.54 69.2758 100.46C69.0091 100.367 68.7291 100.32 68.4358 100.32C67.9424 100.32 67.4691 100.427 67.0158 100.64C66.3491 100.947 65.8291 101.433 65.4558 102.1C65.0824 102.767 64.8224 103.453 64.6758 104.16C64.6358 104.373 64.6158 104.587 64.6158 104.8C64.6158 105.187 64.6758 105.573 64.7958 105.96C64.9158 106.333 65.0824 106.673 65.2958 106.98C65.5491 107.327 65.8224 107.6 66.1158 107.8C66.4091 107.987 66.7824 108.08 67.2358 108.08ZM74.8892 98.4C74.6359 98.4 74.4226 98.3067 74.2492 98.12C74.0759 97.9333 73.9892 97.7133 73.9892 97.46C73.9892 97.2067 74.0759 96.9867 74.2492 96.8C74.4226 96.6133 74.6359 96.52 74.8892 96.52C75.1292 96.52 75.3359 96.6133 75.5092 96.8C75.6826 96.9867 75.7692 97.2067 75.7692 97.46C75.7692 97.7133 75.6826 97.9333 75.5092 98.12C75.3359 98.3067 75.1292 98.4 74.8892 98.4ZM75.8492 109.36C75.4892 109.36 75.1492 109.207 74.8292 108.9C74.5359 108.607 74.3359 108.227 74.2292 107.76C74.1226 107.293 74.0692 106.787 74.0692 106.24C74.0692 105.707 74.1026 105.16 74.1692 104.6C74.2359 104.04 74.2959 103.52 74.3492 103.04C74.4159 102.547 74.4492 102.14 74.4492 101.82C74.4492 101.42 74.3892 101.16 74.2692 101.04C73.9226 100.88 73.7492 100.667 73.7492 100.4C73.7492 100.267 73.7959 100.16 73.8892 100.08C73.9959 100 74.1159 99.96 74.2492 99.96C74.4359 99.96 74.6026 100.013 74.7492 100.12C74.8959 100.227 75.0159 100.347 75.1092 100.48C75.2559 100.667 75.3492 100.893 75.3892 101.16C75.4426 101.427 75.4692 101.713 75.4692 102.02C75.4692 102.393 75.4492 102.8 75.4092 103.24C75.3692 103.667 75.3226 104.093 75.2692 104.52C75.2292 104.893 75.1892 105.253 75.1492 105.6C75.1226 105.933 75.1092 106.253 75.1092 106.56C75.1092 106.92 75.1426 107.24 75.2092 107.52C75.2759 107.8 75.3892 108.013 75.5492 108.16C75.6426 108.253 75.7559 108.3 75.8892 108.3C76.1292 108.3 76.3559 108.173 76.5692 107.92C76.7959 107.667 76.9559 107.453 77.0492 107.28C77.1026 107.187 77.1492 107.093 77.1892 107C77.2292 106.893 77.2759 106.793 77.3292 106.7C77.4226 106.487 77.5759 106.38 77.7892 106.38C77.9226 106.38 78.0426 106.427 78.1492 106.52C78.2692 106.613 78.3292 106.733 78.3292 106.88C78.3292 106.92 78.3159 106.98 78.2892 107.06C78.1959 107.353 78.0226 107.68 77.7692 108.04C77.5292 108.4 77.2426 108.713 76.9092 108.98C76.5759 109.233 76.2226 109.36 75.8492 109.36ZM83.0358 111.38C82.5558 111.38 82.0291 111.313 81.4558 111.18C80.8958 111.047 80.3558 110.84 79.8358 110.56C79.3158 110.28 78.8891 109.92 78.5558 109.48C78.2358 109.04 78.0758 108.513 78.0758 107.9C78.0758 107.167 78.2024 106.58 78.4558 106.14C78.7091 105.7 79.0358 105.387 79.4358 105.2C79.8491 105 80.2758 104.9 80.7158 104.9C81.1824 104.9 81.6291 104.993 82.0558 105.18C82.4958 105.353 82.8558 105.593 83.1358 105.9C83.4158 106.193 83.5558 106.533 83.5558 106.92C83.5558 107 83.5491 107.087 83.5358 107.18C83.5224 107.26 83.4958 107.347 83.4558 107.44C83.4158 107.533 83.3424 107.66 83.2358 107.82C83.1291 107.967 83.0224 108.067 82.9158 108.12C82.7824 108.187 82.6691 108.22 82.5758 108.22C82.4291 108.22 82.3024 108.173 82.1958 108.08C82.1024 107.973 82.0558 107.853 82.0558 107.72C82.0558 107.52 82.1491 107.367 82.3358 107.26C82.4958 107.153 82.5758 107.047 82.5758 106.94C82.5758 106.78 82.4691 106.627 82.2558 106.48C82.0558 106.333 81.8358 106.213 81.5958 106.12C81.3691 106.027 81.2024 105.973 81.0958 105.96C81.0291 105.947 80.9624 105.94 80.8958 105.94C80.8424 105.94 80.7824 105.94 80.7158 105.94C80.1558 105.94 79.7424 106.113 79.4758 106.46C79.2224 106.807 79.0958 107.287 79.0958 107.9C79.0958 108.327 79.2291 108.693 79.4958 109C79.7758 109.32 80.1224 109.58 80.5358 109.78C80.9624 109.98 81.3958 110.127 81.8358 110.22C82.2891 110.313 82.6891 110.36 83.0358 110.36C83.8224 110.36 84.5158 110.207 85.1158 109.9C85.7291 109.593 86.2091 109.2 86.5558 108.72C86.9158 108.24 87.0958 107.74 87.0958 107.22C87.0958 106.9 87.0224 106.587 86.8758 106.28C86.7291 105.96 86.4891 105.667 86.1558 105.4C85.7691 105.08 85.3091 104.84 84.7758 104.68C84.2558 104.52 83.7224 104.38 83.1758 104.26C82.6424 104.14 82.1424 103.98 81.6758 103.78C81.2224 103.58 80.8491 103.28 80.5558 102.88C80.2758 102.48 80.1358 101.913 80.1358 101.18C80.1358 100.753 80.2491 100.36 80.4758 100C80.7024 99.6267 80.9758 99.3267 81.2958 99.1C81.9358 98.6467 82.6891 98.42 83.5558 98.42C83.9824 98.42 84.3958 98.4867 84.7958 98.62C85.1958 98.7533 85.5491 98.9533 85.8558 99.22C86.3091 99.6333 86.5358 100.107 86.5358 100.64C86.5358 100.973 86.4358 101.293 86.2358 101.6C86.1024 101.787 85.9624 101.88 85.8158 101.88C85.6824 101.88 85.5624 101.82 85.4558 101.7C85.3491 101.567 85.2958 101.427 85.2958 101.28C85.2958 101.227 85.3091 101.16 85.3358 101.08C85.3758 100.96 85.4091 100.86 85.4358 100.78C85.4758 100.687 85.4958 100.607 85.4958 100.54C85.4958 100.38 85.3891 100.2 85.1758 100C84.9891 99.8133 84.7491 99.68 84.4558 99.6C84.1624 99.5067 83.8624 99.46 83.5558 99.46C83.2624 99.46 82.9691 99.5 82.6758 99.58C82.3824 99.66 82.1291 99.78 81.9158 99.94C81.4358 100.313 81.1958 100.793 81.1958 101.38C81.1958 101.807 81.3624 102.18 81.6958 102.5C81.9624 102.74 82.3291 102.927 82.7958 103.06C83.2624 103.193 83.6624 103.307 83.9958 103.4C84.4758 103.52 84.9624 103.667 85.4558 103.84C85.9624 104.013 86.4224 104.267 86.8358 104.6C87.2758 104.947 87.5958 105.353 87.7958 105.82C88.0091 106.273 88.1158 106.74 88.1158 107.22C88.1158 107.833 87.9558 108.427 87.6358 109C87.3158 109.56 86.8624 110.027 86.2758 110.4C85.8091 110.693 85.2891 110.927 84.7158 111.1C84.1558 111.287 83.5958 111.38 83.0358 111.38ZM96.9845 109.18C96.3979 109.18 95.9579 109.04 95.6645 108.76C95.3712 108.467 95.1779 108.1 95.0845 107.66C94.9912 107.207 94.9445 106.753 94.9445 106.3C94.9445 106.087 94.9445 105.887 94.9445 105.7C94.9579 105.5 94.9712 105.313 94.9845 105.14C94.9979 104.753 95.0245 104.367 95.0645 103.98C95.1045 103.58 95.1245 103.18 95.1245 102.78C95.1245 102.473 95.1045 102.173 95.0645 101.88H95.0445C94.9645 101.427 94.8512 101.067 94.7045 100.8C94.5712 100.533 94.2645 100.367 93.7845 100.3C93.7312 100.287 93.6712 100.28 93.6045 100.28C93.5512 100.28 93.4979 100.28 93.4445 100.28C93.0712 100.28 92.7312 100.373 92.4245 100.56C92.1179 100.747 91.8379 100.993 91.5845 101.3C91.1845 101.793 90.8912 102.36 90.7045 103C90.5179 103.627 90.3912 104.28 90.3245 104.96C90.2712 105.64 90.2445 106.313 90.2445 106.98C90.2445 107.26 90.2445 107.533 90.2445 107.8C90.2579 108.067 90.2645 108.333 90.2645 108.6C90.2645 108.733 90.2045 108.833 90.0845 108.9C89.9779 108.967 89.8579 109 89.7245 109C89.6045 109 89.4912 108.973 89.3845 108.92C89.2779 108.853 89.2245 108.753 89.2245 108.62C89.2245 108.567 89.2179 108.393 89.2045 108.1C89.2045 107.807 89.2045 107.46 89.2045 107.06C89.2045 106.647 89.1979 106.24 89.1845 105.84C89.1845 105.427 89.1845 105.08 89.1845 104.8C89.1845 104.507 89.1845 104.333 89.1845 104.28V100.76C89.1845 100.413 89.1912 100 89.2045 99.52C89.2312 99.04 89.2779 98.5467 89.3445 98.04C89.4245 97.52 89.5312 97.0333 89.6645 96.58C89.7979 96.1133 89.9712 95.7333 90.1845 95.44C90.4112 95.1333 90.6645 94.92 90.9445 94.8C91.2245 94.68 91.5512 94.62 91.9245 94.62C92.0979 94.62 92.2245 94.6733 92.3045 94.78C92.3845 94.8867 92.4245 95 92.4245 95.12C92.4245 95.2533 92.3845 95.3733 92.3045 95.48C92.2245 95.5867 92.0979 95.64 91.9245 95.64C91.6845 95.64 91.5112 95.66 91.4045 95.7C91.2979 95.74 91.1712 95.8533 91.0245 96.04C90.8512 96.2533 90.7112 96.5667 90.6045 96.98C90.4979 97.3933 90.4112 97.84 90.3445 98.32C90.2912 98.7867 90.2512 99.24 90.2245 99.68C90.2112 100.12 90.2045 100.48 90.2045 100.76V101.52C90.5512 100.893 90.9979 100.36 91.5445 99.92C92.1045 99.4667 92.7579 99.24 93.5045 99.24C94.3312 99.24 94.9445 99.4867 95.3445 99.98C95.7445 100.46 95.9912 101.033 96.0845 101.7C96.1112 101.833 96.1245 101.973 96.1245 102.12C96.1245 102.253 96.1245 102.393 96.1245 102.54C96.1245 102.98 96.1045 103.42 96.0645 103.86C96.0245 104.3 96.0045 104.74 96.0045 105.18C96.0045 105.393 95.9979 105.607 95.9845 105.82C95.9712 106.033 95.9645 106.247 95.9645 106.46C95.9645 106.567 95.9645 106.673 95.9645 106.78C95.9779 106.887 95.9912 106.993 96.0045 107.1C96.0445 107.407 96.1312 107.66 96.2645 107.86C96.4112 108.06 96.6512 108.16 96.9845 108.16C97.1579 108.16 97.2845 108.213 97.3645 108.32C97.4579 108.427 97.5045 108.547 97.5045 108.68C97.5045 108.8 97.4579 108.913 97.3645 109.02C97.2845 109.127 97.1579 109.18 96.9845 109.18ZM105.041 109.36C102.908 109.36 101.295 108.747 100.201 107.52C99.1214 106.293 98.5814 104.587 98.5814 102.4C98.5814 101.387 98.7414 100.427 99.0614 99.52C99.3947 98.6 99.8614 97.7867 100.461 97.08C101.061 96.36 101.781 95.7933 102.621 95.38C103.475 94.9667 104.421 94.76 105.461 94.76C106.395 94.76 107.261 94.9133 108.061 95.22C108.861 95.5133 109.508 95.96 110.001 96.56C110.508 97.1467 110.761 97.8867 110.761 98.78C110.761 99.5 110.595 100.133 110.261 100.68C109.928 101.227 109.475 101.653 108.901 101.96C108.341 102.267 107.721 102.42 107.041 102.42C106.188 102.42 105.501 102.187 104.981 101.72C104.461 101.253 104.201 100.68 104.201 100C104.201 99.4133 104.321 98.94 104.561 98.58C104.815 98.2067 105.081 98.02 105.361 98.02C105.495 98.02 105.601 98.0667 105.681 98.16C105.775 98.24 105.821 98.3333 105.821 98.44C105.821 98.5733 105.761 98.68 105.641 98.76C105.295 99.0267 105.121 99.3733 105.121 99.8C105.121 100.347 105.295 100.76 105.641 101.04C106.001 101.307 106.468 101.44 107.041 101.44C107.801 101.44 108.435 101.2 108.941 100.72C109.461 100.24 109.721 99.5933 109.721 98.78C109.721 98.14 109.528 97.5933 109.141 97.14C108.755 96.6867 108.235 96.34 107.581 96.1C106.928 95.8467 106.201 95.72 105.401 95.72C104.548 95.72 103.768 95.9067 103.061 96.28C102.355 96.6533 101.741 97.1533 101.221 97.78C100.715 98.4067 100.321 99.1133 100.041 99.9C99.7614 100.687 99.6214 101.493 99.6214 102.32C99.6214 103.493 99.8214 104.533 100.221 105.44C100.621 106.347 101.221 107.053 102.021 107.56C102.821 108.067 103.828 108.32 105.041 108.32C105.681 108.32 106.301 108.227 106.901 108.04C107.515 107.84 108.061 107.56 108.541 107.2C109.035 106.84 109.415 106.427 109.681 105.96C109.748 105.84 109.795 105.72 109.821 105.6C109.848 105.467 109.881 105.347 109.921 105.24C109.961 105.12 110.015 105.02 110.081 104.94C110.161 104.86 110.275 104.82 110.421 104.82C110.568 104.82 110.675 104.873 110.741 104.98C110.808 105.073 110.841 105.173 110.841 105.28C110.841 105.573 110.781 105.853 110.661 106.12C110.555 106.387 110.421 106.633 110.261 106.86C109.888 107.407 109.415 107.867 108.841 108.24C108.281 108.613 107.668 108.893 107.001 109.08C106.348 109.267 105.695 109.36 105.041 109.36ZM120.207 109.18C119.621 109.18 119.181 109.04 118.887 108.76C118.594 108.467 118.401 108.1 118.307 107.66C118.214 107.207 118.167 106.753 118.167 106.3C118.167 106.087 118.167 105.887 118.167 105.7C118.181 105.5 118.194 105.313 118.207 105.14C118.221 104.753 118.247 104.367 118.287 103.98C118.327 103.58 118.347 103.18 118.347 102.78C118.347 102.473 118.327 102.173 118.287 101.88H118.267C118.187 101.427 118.074 101.067 117.927 100.8C117.794 100.533 117.487 100.367 117.007 100.3C116.954 100.287 116.894 100.28 116.827 100.28C116.774 100.28 116.721 100.28 116.667 100.28C116.294 100.28 115.954 100.373 115.647 100.56C115.341 100.747 115.061 100.993 114.807 101.3C114.407 101.793 114.114 102.36 113.927 103C113.741 103.627 113.614 104.28 113.547 104.96C113.494 105.64 113.467 106.313 113.467 106.98C113.467 107.26 113.467 107.533 113.467 107.8C113.481 108.067 113.487 108.333 113.487 108.6C113.487 108.733 113.427 108.833 113.307 108.9C113.201 108.967 113.081 109 112.947 109C112.827 109 112.714 108.973 112.607 108.92C112.501 108.853 112.447 108.753 112.447 108.62C112.447 108.567 112.441 108.393 112.427 108.1C112.427 107.807 112.427 107.46 112.427 107.06C112.427 106.647 112.421 106.24 112.407 105.84C112.407 105.427 112.407 105.08 112.407 104.8C112.407 104.507 112.407 104.333 112.407 104.28V100.76C112.407 100.413 112.414 100 112.427 99.52C112.454 99.04 112.501 98.5467 112.567 98.04C112.647 97.52 112.754 97.0333 112.887 96.58C113.021 96.1133 113.194 95.7333 113.407 95.44C113.634 95.1333 113.887 94.92 114.167 94.8C114.447 94.68 114.774 94.62 115.147 94.62C115.321 94.62 115.447 94.6733 115.527 94.78C115.607 94.8867 115.647 95 115.647 95.12C115.647 95.2533 115.607 95.3733 115.527 95.48C115.447 95.5867 115.321 95.64 115.147 95.64C114.907 95.64 114.734 95.66 114.627 95.7C114.521 95.74 114.394 95.8533 114.247 96.04C114.074 96.2533 113.934 96.5667 113.827 96.98C113.721 97.3933 113.634 97.84 113.567 98.32C113.514 98.7867 113.474 99.24 113.447 99.68C113.434 100.12 113.427 100.48 113.427 100.76V101.52C113.774 100.893 114.221 100.36 114.767 99.92C115.327 99.4667 115.981 99.24 116.727 99.24C117.554 99.24 118.167 99.4867 118.567 99.98C118.967 100.46 119.214 101.033 119.307 101.7C119.334 101.833 119.347 101.973 119.347 102.12C119.347 102.253 119.347 102.393 119.347 102.54C119.347 102.98 119.327 103.42 119.287 103.86C119.247 104.3 119.227 104.74 119.227 105.18C119.227 105.393 119.221 105.607 119.207 105.82C119.194 106.033 119.187 106.247 119.187 106.46C119.187 106.567 119.187 106.673 119.187 106.78C119.201 106.887 119.214 106.993 119.227 107.1C119.267 107.407 119.354 107.66 119.487 107.86C119.634 108.06 119.874 108.16 120.207 108.16C120.381 108.16 120.507 108.213 120.587 108.32C120.681 108.427 120.727 108.547 120.727 108.68C120.727 108.8 120.681 108.913 120.587 109.02C120.507 109.127 120.381 109.18 120.207 109.18ZM125.524 109.18C124.671 109.18 123.944 108.953 123.344 108.5C122.757 108.033 122.311 107.44 122.004 106.72C121.711 105.987 121.564 105.227 121.564 104.44C121.564 103.707 121.691 103 121.944 102.32C122.211 101.627 122.611 101.047 123.144 100.58C123.651 100.18 124.157 99.8867 124.664 99.7C125.171 99.5133 125.671 99.42 126.164 99.42C127.031 99.42 127.651 99.6267 128.024 100.04C128.411 100.44 128.604 100.913 128.604 101.46C128.604 101.913 128.477 102.373 128.224 102.84C127.984 103.293 127.651 103.673 127.224 103.98C126.784 104.287 126.284 104.533 125.724 104.72C125.177 104.893 124.624 104.98 124.064 104.98C123.571 104.98 123.091 104.9 122.624 104.74C122.651 105.34 122.777 105.9 123.004 106.42C123.231 106.94 123.551 107.36 123.964 107.68C124.391 108 124.911 108.16 125.524 108.16C125.831 108.16 126.177 108.113 126.564 108.02C126.964 107.927 127.324 107.78 127.644 107.58C127.964 107.367 128.157 107.107 128.224 106.8C128.251 106.707 128.264 106.593 128.264 106.46C128.264 106.327 128.264 106.213 128.264 106.12C128.264 105.947 128.317 105.82 128.424 105.74C128.531 105.66 128.651 105.62 128.784 105.62C128.904 105.62 129.017 105.66 129.124 105.74C129.231 105.82 129.284 105.947 129.284 106.12C129.284 106.307 129.284 106.48 129.284 106.64C129.284 106.787 129.251 106.953 129.184 107.14C129.024 107.633 128.737 108.033 128.324 108.34C127.911 108.633 127.451 108.847 126.944 108.98C126.451 109.113 125.977 109.18 125.524 109.18ZM124.084 103.94C124.324 103.94 124.544 103.92 124.744 103.88C125.184 103.8 125.617 103.66 126.044 103.46C126.484 103.26 126.851 102.993 127.144 102.66C127.437 102.313 127.584 101.907 127.584 101.44C127.584 101.147 127.477 100.92 127.264 100.76C127.051 100.6 126.797 100.5 126.504 100.46C126.424 100.447 126.344 100.44 126.264 100.44C126.184 100.427 126.104 100.42 126.024 100.42C125.437 100.42 124.911 100.58 124.444 100.9C123.977 101.207 123.591 101.607 123.284 102.1C122.991 102.593 122.797 103.12 122.704 103.68C122.904 103.773 123.124 103.84 123.364 103.88C123.604 103.92 123.844 103.94 124.084 103.94ZM129.716 113.56C129.156 113.56 128.643 113.36 128.176 112.96C127.843 112.667 127.623 112.307 127.516 111.88C127.396 111.453 127.336 111.04 127.336 110.64C127.336 110.467 127.389 110.34 127.496 110.26C127.603 110.18 127.716 110.14 127.836 110.14C127.969 110.14 128.089 110.18 128.196 110.26C128.303 110.34 128.356 110.467 128.356 110.64C128.356 110.893 128.389 111.173 128.456 111.48C128.523 111.787 128.649 112.02 128.836 112.18C129.116 112.42 129.409 112.54 129.716 112.54C129.943 112.54 130.156 112.473 130.356 112.34C130.569 112.207 130.736 112.013 130.856 111.76C131.016 111.427 131.136 110.967 131.216 110.38C131.296 109.793 131.349 109.153 131.376 108.46C131.403 107.767 131.416 107.093 131.416 106.44C131.416 105.947 131.409 105.48 131.396 105.04C131.396 104.6 131.396 104.233 131.396 103.94C131.396 103.38 131.389 102.82 131.376 102.26C131.376 101.687 131.369 101.12 131.356 100.56H130.356C130.183 100.56 130.056 100.507 129.976 100.4C129.896 100.28 129.856 100.16 129.856 100.04C129.856 99.92 129.896 99.8067 129.976 99.7C130.056 99.58 130.183 99.52 130.356 99.52H131.356C131.356 99.0267 131.369 98.4667 131.396 97.84C131.423 97.2 131.523 96.6533 131.696 96.2C131.883 95.7467 132.163 95.4133 132.536 95.2C132.923 94.9733 133.323 94.86 133.736 94.86C134.229 94.86 134.669 95.0133 135.056 95.32C135.443 95.6267 135.636 96.08 135.636 96.68C135.636 96.84 135.596 96.9533 135.516 97.02C135.449 97.0867 135.363 97.12 135.256 97.12C135.136 97.12 135.016 97.08 134.896 97C134.776 96.92 134.696 96.8333 134.656 96.74C134.629 96.6467 134.603 96.56 134.576 96.48C134.563 96.4 134.536 96.32 134.496 96.24C134.443 96.12 134.349 96.0333 134.216 95.98C134.083 95.9267 133.943 95.9 133.796 95.9C133.583 95.9 133.363 95.96 133.136 96.08C132.923 96.1867 132.763 96.3533 132.656 96.58C132.549 96.82 132.476 97.16 132.436 97.6C132.409 98.04 132.396 98.4533 132.396 98.84V99.52H133.936C134.109 99.52 134.236 99.5733 134.316 99.68C134.396 99.7867 134.436 99.9067 134.436 100.04C134.436 100.173 134.396 100.293 134.316 100.4C134.236 100.507 134.109 100.56 133.936 100.56H132.396C132.409 101.12 132.416 101.687 132.416 102.26C132.429 102.82 132.436 103.38 132.436 103.94C132.436 104.3 132.436 104.713 132.436 105.18C132.449 105.633 132.456 106.113 132.456 106.62C132.456 107.287 132.436 107.967 132.396 108.66C132.369 109.353 132.309 110.007 132.216 110.62C132.123 111.233 131.976 111.753 131.776 112.18C131.563 112.633 131.269 112.973 130.896 113.2C130.536 113.44 130.143 113.56 129.716 113.56Z" fill="black"/>
</svg>
